<svg xmlns="http://www.w3.org/2000/svg" viewBox="0 0 240 64" width="240" height="64" role="img" aria-label="ttmux">
  <defs>
    <linearGradient id="tile" x1="0" y1="0" x2="1" y2="1">
      <stop offset="0" stop-color="#161b22"/><stop offset="1" stop-color="#05070a"/>
    </linearGradient>
    <linearGradient id="edge" x1="0" y1="0" x2="1" y2="1">
      <stop offset="0" stop-color="#3b4252"/><stop offset=".5" stop-color="#222a35"/><stop offset="1" stop-color="#11151b"/>
    </linearGradient>
    <linearGradient id="active" x1="0" y1="0" x2="1" y2="1">
      <stop offset="0" stop-color="#1f6feb"/><stop offset="1" stop-color="#388bfd"/>
    </linearGradient>
    <linearGradient id="word" x1="0" y1="0" x2="0" y2="1">
      <stop offset="0" stop-color="#f5f7fa"/><stop offset=".5" stop-color="#c3c9d1"/>
      <stop offset=".56" stop-color="#9aa1ab"/><stop offset="1" stop-color="#e7ebef"/>
    </linearGradient>
    <filter id="glow" x="-60%" y="-60%" width="220%" height="220%">
      <feGaussianBlur stdDeviation="1.4" result="b"/>
      <feMerge><feMergeNode in="b"/><feMergeNode in="SourceGraphic"/></feMerge>
    </filter>
  </defs>

  <!-- 图标 -->
  <g>
    <rect x="1.5" y="1.5" width="61" height="61" rx="15" fill="url(#edge)"/>
    <rect x="3" y="3" width="58" height="58" rx="13.5" fill="url(#tile)"/>
    <g stroke-linecap="round" stroke-linejoin="round" fill="none">
      <rect x="12" y="12" width="18" height="18" rx="4" fill="#0d1117" stroke="#233042"/>
      <path d="M16.5 18.5 L20 21.5 L16.5 24.5" stroke="#39d0d8" stroke-width="2.2"/>
      <rect x="34" y="12" width="18" height="18" rx="4" fill="#0d1117" stroke="#233042"/>
      <path d="M38.5 18.5 L42 21.5 L38.5 24.5" stroke="#3fb950" stroke-width="2.2"/>
      <rect x="12" y="34" width="18" height="18" rx="4" fill="#0d1117" stroke="#233042"/>
      <path d="M16.5 40.5 L20 43.5 L16.5 46.5" stroke="#bc8cff" stroke-width="2.2"/>
      <rect x="34" y="34" width="18" height="18" rx="4" fill="#0b1f3a" stroke="url(#active)" stroke-width="1.6" filter="url(#glow)"/>
      <path d="M38.5 40.5 L42 43.5 L38.5 46.5" stroke="#58a6ff" stroke-width="2.2" filter="url(#glow)"/>
      <rect x="44" y="41.4" width="4.6" height="4.6" rx="1" fill="#58a6ff" filter="url(#glow)"/>
    </g>
    <line x1="32" y1="21" x2="32" y2="43" stroke="#58a6ff" stroke-width="1.1" opacity=".35"/>
    <line x1="21" y1="32" x2="43" y2="32" stroke="#58a6ff" stroke-width="1.1" opacity=".35"/>
    <circle cx="32" cy="32" r="3.4" fill="#0d1117" stroke="url(#active)" stroke-width="1.6"/>
    <circle cx="32" cy="32" r="1.3" fill="#58a6ff"/>
  </g>

  <!-- 文字 -->
  <text x="76" y="40" font-family="ui-monospace, SFMono-Regular, Menlo, Consolas, monospace"
        font-size="30" font-weight="800" letter-spacing="1" fill="url(#word)">ttmux</text>
  <text x="77" y="54" font-family="ui-sans-serif, system-ui, sans-serif"
        font-size="9" letter-spacing="5" fill="#6e7681">CONSOLE</text>
</svg>
